<svg width="255" height="391" viewBox="0 0 255 391" fill="none" xmlns="http://www.w3.org/2000/svg">
<rect width="255" height="391" rx="9.6067" fill="#E9F7F7"/>
<path d="M103.328 365V353.912H110.448V355.624H105.344V358.36H109.888V360.04H105.344V363.288H110.832V365H103.328ZM115.74 359.368L117.516 356.632H119.548L116.796 360.584C117.372 361.331 117.921 362.088 118.444 362.856C118.977 363.613 119.415 364.328 119.756 365H117.66C117.564 364.797 117.436 364.568 117.276 364.312C117.127 364.045 116.961 363.773 116.78 363.496C116.609 363.208 116.428 362.925 116.236 362.648C116.044 362.371 115.857 362.109 115.676 361.864C115.303 362.344 114.935 362.877 114.572 363.464C114.22 364.04 113.927 364.552 113.692 365H111.708C111.868 364.68 112.06 364.339 112.284 363.976C112.508 363.613 112.748 363.245 113.004 362.872C113.26 362.488 113.521 362.109 113.788 361.736C114.065 361.352 114.337 360.989 114.604 360.648L111.836 356.632H113.964L115.74 359.368ZM126.753 360.856C126.753 359.992 126.555 359.32 126.161 358.84C125.777 358.36 125.153 358.12 124.289 358.12C124.107 358.12 123.915 358.131 123.713 358.152C123.521 358.163 123.329 358.195 123.137 358.248V363.032C123.307 363.149 123.531 363.261 123.809 363.368C124.097 363.464 124.401 363.512 124.721 363.512C125.425 363.512 125.937 363.272 126.257 362.792C126.587 362.312 126.753 361.667 126.753 360.856ZM128.737 360.824C128.737 361.464 128.651 362.051 128.481 362.584C128.321 363.117 128.086 363.576 127.777 363.96C127.467 364.344 127.078 364.643 126.609 364.856C126.15 365.069 125.627 365.176 125.041 365.176C124.646 365.176 124.283 365.128 123.953 365.032C123.622 364.936 123.35 364.829 123.137 364.712V367.96H121.201V356.904C121.595 356.797 122.081 356.696 122.657 356.6C123.233 356.504 123.841 356.456 124.481 356.456C125.142 356.456 125.734 356.557 126.257 356.76C126.779 356.963 127.222 357.256 127.585 357.64C127.958 358.013 128.241 358.472 128.433 359.016C128.635 359.549 128.737 360.152 128.737 360.824ZM133.644 365.16C133.068 365.149 132.588 365.085 132.204 364.968C131.831 364.851 131.532 364.685 131.308 364.472C131.084 364.248 130.924 363.976 130.828 363.656C130.743 363.325 130.7 362.952 130.7 362.536V352.904L132.636 352.584V362.168C132.636 362.403 132.652 362.6 132.684 362.76C132.727 362.92 132.796 363.059 132.892 363.176C132.988 363.283 133.116 363.368 133.276 363.432C133.447 363.485 133.66 363.528 133.916 363.56L133.644 365.16ZM143.05 360.808C143.05 361.469 142.954 362.072 142.762 362.616C142.57 363.16 142.298 363.624 141.946 364.008C141.594 364.392 141.167 364.691 140.666 364.904C140.175 365.117 139.631 365.224 139.034 365.224C138.437 365.224 137.893 365.117 137.402 364.904C136.911 364.691 136.49 364.392 136.138 364.008C135.786 363.624 135.509 363.16 135.306 362.616C135.114 362.072 135.018 361.469 135.018 360.808C135.018 360.147 135.114 359.549 135.306 359.016C135.509 358.472 135.786 358.008 136.138 357.624C136.501 357.24 136.927 356.947 137.418 356.744C137.909 356.531 138.447 356.424 139.034 356.424C139.621 356.424 140.159 356.531 140.65 356.744C141.151 356.947 141.578 357.24 141.93 357.624C142.282 358.008 142.554 358.472 142.746 359.016C142.949 359.549 143.05 360.147 143.05 360.808ZM141.066 360.808C141.066 359.976 140.885 359.32 140.522 358.84C140.17 358.349 139.674 358.104 139.034 358.104C138.394 358.104 137.893 358.349 137.53 358.84C137.178 359.32 137.002 359.976 137.002 360.808C137.002 361.651 137.178 362.317 137.53 362.808C137.893 363.299 138.394 363.544 139.034 363.544C139.674 363.544 140.17 363.299 140.522 362.808C140.885 362.317 141.066 361.651 141.066 360.808ZM149.813 358.376C149.653 358.323 149.429 358.269 149.141 358.216C148.863 358.152 148.538 358.12 148.165 358.12C147.951 358.12 147.722 358.141 147.477 358.184C147.242 358.227 147.077 358.264 146.981 358.296V365H145.045V357.032C145.418 356.893 145.882 356.765 146.437 356.648C147.002 356.52 147.626 356.456 148.309 356.456C148.437 356.456 148.586 356.467 148.757 356.488C148.927 356.499 149.098 356.52 149.269 356.552C149.439 356.573 149.605 356.605 149.765 356.648C149.925 356.68 150.053 356.712 150.149 356.744L149.813 358.376ZM151.034 360.856C151.034 360.12 151.14 359.475 151.354 358.92C151.578 358.365 151.871 357.907 152.234 357.544C152.596 357.171 153.012 356.893 153.482 356.712C153.951 356.52 154.431 356.424 154.922 356.424C156.074 356.424 156.97 356.781 157.61 357.496C158.26 358.211 158.586 359.277 158.586 360.696C158.586 360.803 158.58 360.925 158.57 361.064C158.57 361.192 158.564 361.309 158.554 361.416H153.034C153.087 362.088 153.322 362.611 153.738 362.984C154.164 363.347 154.778 363.528 155.578 363.528C156.047 363.528 156.474 363.485 156.858 363.4C157.252 363.315 157.562 363.224 157.786 363.128L158.042 364.712C157.935 364.765 157.786 364.824 157.594 364.888C157.412 364.941 157.199 364.989 156.954 365.032C156.719 365.085 156.463 365.128 156.186 365.16C155.908 365.192 155.626 365.208 155.338 365.208C154.602 365.208 153.962 365.101 153.418 364.888C152.874 364.664 152.426 364.36 152.074 363.976C151.722 363.581 151.46 363.123 151.29 362.6C151.119 362.067 151.034 361.485 151.034 360.856ZM156.65 359.992C156.65 359.725 156.612 359.475 156.538 359.24C156.463 358.995 156.351 358.787 156.202 358.616C156.063 358.435 155.887 358.296 155.674 358.2C155.471 358.093 155.226 358.04 154.938 358.04C154.639 358.04 154.378 358.099 154.154 358.216C153.93 358.323 153.738 358.467 153.578 358.648C153.428 358.829 153.311 359.037 153.226 359.272C153.14 359.507 153.082 359.747 153.05 359.992H156.65Z" fill="black"/>
<path d="M54.9537 241.77C54.7566 241.437 53.9036 241.793 53.7468 241.491C53.5905 241.19 54.383 240.731 54.8358 239.683C54.9175 239.494 55.432 238.303 55.0511 237.935C54.3291 237.238 51.0252 240.113 49.8689 239.173C49.6152 238.966 49.4379 238.554 48.6699 237.885C48.3644 237.618 48.1797 237.498 48.0009 237.543C47.7472 237.606 47.7271 237.946 47.455 238.615C47.0471 239.618 46.8058 239.558 46.5681 240.358C46.3916 240.952 46.4319 241.297 46.2243 241.364C45.9304 241.46 45.66 240.83 45.2876 240.886C44.9076 240.944 44.6779 241.677 44.6053 242.226C44.4691 243.257 44.847 243.937 45.0564 244.652C45.284 245.43 45.4191 246.612 44.8935 248.285L39.6912 262.968C40.8397 259.955 44.1652 251.696 45.5626 248.627C45.966 247.741 46.4114 246.842 47.3259 246.487C48.2064 246.146 49.4157 246.35 50.9573 245.978C51.1374 245.934 51.637 245.807 51.6999 245.512C51.7519 245.269 51.458 245.133 51.5032 244.905C51.5637 244.599 52.1417 244.596 52.8519 244.243C53.3527 243.994 53.6647 243.698 53.9329 243.444C54.0138 243.367 55.2162 242.213 54.9537 241.77H54.9537Z" fill="#F2F2F2"/>
<path d="M34.4862 249.5C34.2661 249.5 34.1947 250.023 34.0014 250.013C33.8087 250.002 33.8126 249.48 33.4296 248.955C33.3606 248.861 32.9254 248.264 32.6354 248.345C32.0857 248.499 32.5411 250.953 31.7465 251.25C31.5721 251.315 31.319 251.284 30.7695 251.468C30.5509 251.541 30.4387 251.598 30.409 251.698C30.3669 251.841 30.5278 251.949 30.7769 252.276C31.1506 252.766 31.0513 252.867 31.3748 253.215C31.6149 253.473 31.7958 253.553 31.7688 253.675C31.7307 253.846 31.3439 253.798 31.2641 253.997C31.1827 254.2 31.4759 254.525 31.724 254.719C32.1898 255.084 32.632 255.094 33.0428 255.197C33.4893 255.31 34.1074 255.584 34.7756 256.326L40.4686 263.12C39.3238 261.686 36.2366 257.668 35.136 256.095C34.8183 255.641 34.5065 255.163 34.5966 254.611C34.6834 254.08 35.1322 253.544 35.3947 252.678C35.4254 252.577 35.5071 252.295 35.381 252.179C35.2768 252.083 35.1254 252.189 35.0268 252.101C34.8945 251.983 35.0594 251.697 35.0915 251.247C35.1141 250.929 35.0592 250.69 35.0119 250.484C34.9977 250.423 34.7791 249.498 34.4862 249.5V249.5Z" fill="#F2F2F2"/>
<path d="M38.8764 250.487L38.7438 249.301L38.8044 249.211C39.0847 248.796 39.2275 248.39 39.2293 248.005C39.2295 247.943 39.2267 247.882 39.2238 247.82C39.2124 247.572 39.1981 247.265 39.3581 246.906C39.4478 246.707 39.6999 246.244 40.0788 246.301C40.1808 246.316 40.2579 246.363 40.3165 246.418C40.3251 246.404 40.3339 246.39 40.3434 246.375C40.4614 246.195 40.5548 246.118 40.6448 246.043C40.714 245.986 40.7854 245.927 40.8974 245.787C40.9466 245.726 40.9849 245.672 41.0172 245.627C41.1152 245.49 41.2432 245.327 41.4689 245.33C41.7101 245.341 41.8364 245.541 41.9201 245.673C42.0696 245.909 42.1373 246.079 42.1822 246.192C42.1984 246.233 42.217 246.28 42.2264 246.294C42.3042 246.408 42.9359 246.301 43.174 246.262C43.7086 246.173 44.1712 246.096 44.3618 246.434C44.4984 246.675 44.397 246.995 44.0512 247.409C43.9435 247.537 43.8289 247.635 43.7272 247.712C43.8115 247.762 43.8869 247.84 43.9175 247.961C43.9895 248.248 43.7429 248.536 43.1848 248.818C43.0462 248.888 42.8597 248.982 42.5982 249.028C42.475 249.049 42.3642 249.054 42.2693 249.057C42.2673 249.112 42.2544 249.171 42.221 249.232C42.123 249.413 41.919 249.499 41.6115 249.478C41.2732 249.46 40.9946 249.396 40.7488 249.339C40.5343 249.29 40.3494 249.248 40.2042 249.258C39.935 249.279 39.7276 249.495 39.4841 249.775L38.8764 250.487V250.487Z" fill="#F2F2F2"/>
<path d="M39.4915 243.428L38.3803 243.857L38.2781 243.821C37.8057 243.655 37.3775 243.619 37.0051 243.715C36.9458 243.731 36.8874 243.749 36.8279 243.768C36.592 243.841 36.2987 243.933 35.9121 243.869C35.6964 243.833 35.1858 243.706 35.145 243.324C35.1329 243.222 35.1587 243.135 35.1969 243.064C35.1815 243.06 35.166 243.054 35.1492 243.049C34.9451 242.98 34.8468 242.91 34.7521 242.841C34.6793 242.789 34.6042 242.734 34.4409 242.661C34.3693 242.629 34.3076 242.606 34.2558 242.586C34.0988 242.526 33.9088 242.443 33.8543 242.224C33.8042 241.987 33.9651 241.814 34.0715 241.699C34.2614 241.495 34.4084 241.386 34.5059 241.314C34.5416 241.288 34.5816 241.258 34.5931 241.245C34.6839 241.141 34.4203 240.556 34.3223 240.335C34.1005 239.839 33.9085 239.411 34.1863 239.14C34.3849 238.947 34.7191 238.964 35.2065 239.194C35.3582 239.266 35.4818 239.352 35.5817 239.431C35.6089 239.337 35.6644 239.244 35.7739 239.184C36.0331 239.041 36.3737 239.207 36.7873 239.676C36.8904 239.793 37.0284 239.95 37.1384 240.191C37.1901 240.305 37.2232 240.412 37.25 240.503C37.3036 240.491 37.3643 240.488 37.432 240.505C37.631 240.554 37.7656 240.73 37.8237 241.033C37.8924 241.366 37.9006 241.652 37.9082 241.904C37.9151 242.125 37.9216 242.315 37.9678 242.453C38.0571 242.708 38.3181 242.854 38.6502 243.019L39.4915 243.428L39.4915 243.428Z" fill="#F2F2F2"/>
<path d="M38.8764 239.935L38.7438 238.749L38.8044 238.659C39.0847 238.244 39.2275 237.838 39.2293 237.453C39.2295 237.391 39.2267 237.33 39.2238 237.268C39.2124 237.02 39.1981 236.713 39.3581 236.354C39.4478 236.155 39.6999 235.692 40.0788 235.749C40.1808 235.764 40.2579 235.811 40.3165 235.866C40.3251 235.852 40.3339 235.838 40.3434 235.823C40.4614 235.643 40.5548 235.566 40.6448 235.491C40.714 235.434 40.7854 235.375 40.8974 235.235C40.9466 235.174 40.9849 235.12 41.0172 235.075C41.1152 234.938 41.2432 234.775 41.4689 234.778C41.7101 234.789 41.8364 234.989 41.9201 235.121C42.0696 235.357 42.1373 235.527 42.1822 235.64C42.1984 235.681 42.217 235.728 42.2264 235.742C42.3042 235.856 42.9359 235.749 43.174 235.71C43.7086 235.621 44.1712 235.544 44.3618 235.882C44.4984 236.123 44.397 236.443 44.0512 236.857C43.9435 236.985 43.8289 237.083 43.7272 237.16C43.8115 237.21 43.8869 237.288 43.9175 237.409C43.9895 237.696 43.7429 237.984 43.1848 238.266C43.0462 238.336 42.8597 238.43 42.5982 238.476C42.475 238.497 42.3642 238.502 42.2693 238.505C42.2673 238.56 42.2544 238.619 42.221 238.681C42.123 238.861 41.919 238.947 41.6115 238.926C41.2732 238.908 40.9946 238.844 40.7488 238.787C40.5343 238.738 40.3494 238.696 40.2042 238.706C39.935 238.727 39.7276 238.943 39.4841 239.223L38.8764 239.935V239.935Z" fill="#F2F2F2"/>
<path d="M40.0874 262.949L39.8394 262.793L39.7794 262.506L39.8394 262.793L39.5502 262.826C39.5456 262.799 39.5299 262.737 39.5062 262.641C39.3767 262.111 38.9821 260.497 38.6529 257.957C38.4232 256.183 38.2932 254.36 38.2663 252.536C38.2395 250.71 38.3258 249.328 38.3949 248.216C38.4472 247.378 38.5106 246.58 38.5729 245.803C38.7387 243.726 38.895 241.764 38.7787 239.592C38.753 239.107 38.6989 238.098 38.1103 237.024C37.7688 236.401 37.2985 235.848 36.7122 235.381L37.0768 234.922C37.724 235.438 38.2443 236.05 38.6235 236.742C39.2762 237.933 39.335 239.033 39.3633 239.561C39.4816 241.771 39.3236 243.752 39.1561 245.849C39.0944 246.624 39.031 247.418 38.979 248.253C38.9104 249.354 38.825 250.724 38.8515 252.527C38.8778 254.329 39.0064 256.13 39.233 257.881C39.5582 260.39 39.9471 261.979 40.0748 262.501C40.1428 262.78 40.1571 262.838 40.0874 262.949H40.0874Z" fill="#F2F2F2"/>
<path d="M35.639 236.312C35.615 236.312 35.5907 236.312 35.5661 236.31C35.0677 236.283 34.6063 235.984 34.1942 235.422C34.0011 235.157 33.9022 234.856 33.705 234.254C33.6745 234.161 33.5259 233.691 33.4356 233.043C33.3764 232.62 33.3839 232.443 33.4676 232.287C33.5604 232.113 33.7107 231.992 33.8799 231.91C33.8725 231.854 33.8785 231.796 33.9028 231.737C34.0025 231.492 34.2677 231.524 34.4111 231.54C34.4837 231.549 34.5743 231.561 34.672 231.556C34.8257 231.549 34.9083 231.503 35.0335 231.434C35.1532 231.368 35.3021 231.286 35.5229 231.241C35.9584 231.15 36.3233 231.274 36.4436 231.314C37.0765 231.526 37.3886 232.019 37.7498 232.589C37.8218 232.704 38.0689 233.121 38.2321 233.692C38.3498 234.104 38.3332 234.287 38.2978 234.424C38.2258 234.703 38.0558 234.864 37.624 235.218C37.1731 235.588 36.9468 235.773 36.7525 235.886C36.3002 236.148 36.0161 236.312 35.639 236.312V236.312Z" fill="#F2F2F2"/>
<path d="M221.648 242.145C221.451 241.812 220.598 242.169 220.441 241.866C220.285 241.565 221.078 241.106 221.531 240.058C221.612 239.869 222.127 238.678 221.746 238.31C221.024 237.613 217.72 240.489 216.564 239.548C216.31 239.341 216.133 238.929 215.365 238.26C215.059 237.994 214.874 237.873 214.696 237.918C214.442 237.982 214.422 238.322 214.15 238.99C213.742 239.993 213.5 239.933 213.263 240.733C213.086 241.327 213.127 241.672 212.919 241.74C212.625 241.835 212.355 241.205 211.982 241.261C211.602 241.319 211.373 242.052 211.3 242.602C211.164 243.632 211.542 244.312 211.751 245.028C211.979 245.805 212.114 246.987 211.588 248.66L206.386 263.343C207.534 260.33 210.86 252.071 212.257 249.002C212.661 248.116 213.106 247.217 214.021 246.862C214.901 246.521 216.11 246.725 217.652 246.353C217.832 246.309 218.332 246.182 218.395 245.888C218.447 245.644 218.153 245.508 218.198 245.28C218.258 244.975 218.836 244.971 219.547 244.618C220.047 244.369 220.359 244.074 220.628 243.819C220.709 243.743 221.911 242.588 221.648 242.145V242.145Z" fill="#F2F2F2"/>
<path d="M201.181 249.875C200.961 249.876 200.889 250.398 200.696 250.388C200.503 250.378 200.507 249.856 200.124 249.331C200.055 249.236 199.62 248.639 199.33 248.72C198.78 248.874 199.236 251.328 198.441 251.625C198.267 251.691 198.014 251.659 197.464 251.843C197.246 251.917 197.133 251.973 197.104 252.074C197.062 252.217 197.222 252.325 197.472 252.651C197.845 253.141 197.746 253.243 198.069 253.59C198.31 253.848 198.49 253.928 198.464 254.05C198.425 254.222 198.039 254.173 197.959 254.372C197.877 254.576 198.171 254.9 198.419 255.094C198.884 255.459 199.327 255.469 199.738 255.573C200.184 255.685 200.802 255.96 201.47 256.701L207.163 263.495C206.018 262.061 202.931 258.043 201.831 256.47C201.513 256.017 201.201 255.538 201.291 254.986C201.378 254.455 201.827 253.919 202.089 253.054C202.12 252.953 202.202 252.67 202.076 252.554C201.972 252.459 201.82 252.564 201.721 252.476C201.589 252.358 201.754 252.073 201.786 251.622C201.809 251.304 201.754 251.065 201.707 250.86C201.692 250.798 201.474 249.874 201.181 249.875V249.875Z" fill="#F2F2F2"/>
<path d="M205.571 250.862L205.439 249.676L205.499 249.587C205.779 249.171 205.922 248.765 205.924 248.38C205.924 248.319 205.921 248.257 205.919 248.195C205.907 247.948 205.893 247.64 206.053 247.282C206.143 247.082 206.395 246.619 206.774 246.677C206.876 246.691 206.953 246.738 207.011 246.793C207.02 246.779 207.029 246.765 207.038 246.75C207.156 246.57 207.25 246.493 207.34 246.418C207.409 246.361 207.48 246.302 207.592 246.163C207.641 246.101 207.68 246.047 207.712 246.002C207.81 245.865 207.938 245.702 208.164 245.705C208.405 245.717 208.531 245.916 208.615 246.049C208.764 246.284 208.832 246.454 208.877 246.567C208.893 246.608 208.912 246.655 208.921 246.669C208.999 246.784 209.631 246.677 209.869 246.638C210.403 246.548 210.866 246.471 211.057 246.809C211.193 247.05 211.092 247.37 210.746 247.784C210.638 247.913 210.524 248.011 210.422 248.087C210.506 248.138 210.582 248.215 210.612 248.336C210.684 248.624 210.438 248.912 209.88 249.193C209.741 249.264 209.554 249.358 209.293 249.403C209.17 249.424 209.059 249.429 208.964 249.432C208.962 249.487 208.949 249.546 208.916 249.608C208.818 249.788 208.614 249.874 208.306 249.853C207.968 249.836 207.689 249.771 207.444 249.714C207.229 249.665 207.044 249.623 206.899 249.633C206.63 249.655 206.422 249.871 206.179 250.15L205.571 250.862V250.862Z" fill="#F2F2F2"/>
<path d="M206.186 243.803L205.075 244.232L204.973 244.196C204.5 244.03 204.072 243.995 203.7 244.091C203.64 244.106 203.582 244.124 203.522 244.143C203.287 244.217 202.993 244.308 202.607 244.244C202.391 244.208 201.88 244.081 201.84 243.699C201.828 243.597 201.853 243.51 201.891 243.44C201.876 243.435 201.861 243.43 201.844 243.424C201.64 243.356 201.541 243.285 201.447 243.216C201.374 243.164 201.299 243.11 201.136 243.037C201.064 243.004 201.002 242.981 200.95 242.961C200.793 242.901 200.603 242.818 200.549 242.599C200.499 242.362 200.66 242.189 200.766 242.075C200.956 241.87 201.103 241.761 201.2 241.689C201.236 241.663 201.276 241.633 201.288 241.62C201.378 241.516 201.115 240.931 201.017 240.71C200.795 240.215 200.603 239.786 200.881 239.516C201.08 239.322 201.414 239.339 201.901 239.569C202.053 239.641 202.176 239.727 202.276 239.806C202.304 239.712 202.359 239.619 202.468 239.559C202.728 239.416 203.068 239.582 203.482 240.051C203.585 240.168 203.723 240.325 203.833 240.567C203.885 240.681 203.918 240.787 203.945 240.878C203.998 240.866 204.059 240.863 204.127 240.88C204.326 240.929 204.46 241.105 204.518 241.408C204.587 241.741 204.595 242.027 204.603 242.28C204.61 242.5 204.616 242.69 204.662 242.828C204.752 243.083 205.013 243.23 205.345 243.394L206.186 243.803L206.186 243.803Z" fill="#F2F2F2"/>
<path d="M205.571 240.31L205.439 239.124L205.499 239.035C205.779 238.619 205.922 238.213 205.924 237.828C205.924 237.767 205.921 237.705 205.919 237.643C205.907 237.396 205.893 237.088 206.053 236.73C206.143 236.53 206.395 236.067 206.774 236.125C206.876 236.139 206.953 236.186 207.011 236.241C207.02 236.227 207.029 236.213 207.038 236.198C207.156 236.018 207.25 235.941 207.34 235.866C207.409 235.809 207.48 235.75 207.592 235.611C207.641 235.549 207.68 235.495 207.712 235.45C207.81 235.313 207.938 235.15 208.164 235.153C208.405 235.165 208.531 235.364 208.615 235.497C208.764 235.732 208.832 235.903 208.877 236.015C208.893 236.056 208.912 236.103 208.921 236.117C208.999 236.232 209.631 236.125 209.869 236.086C210.403 235.996 210.866 235.919 211.057 236.257C211.193 236.498 211.092 236.818 210.746 237.232C210.638 237.361 210.524 237.459 210.422 237.535C210.506 237.586 210.582 237.663 210.612 237.784C210.684 238.072 210.438 238.36 209.88 238.641C209.741 238.712 209.554 238.806 209.293 238.851C209.17 238.872 209.059 238.877 208.964 238.88C208.962 238.935 208.949 238.994 208.916 239.056C208.818 239.236 208.614 239.322 208.306 239.301C207.968 239.284 207.689 239.219 207.444 239.162C207.229 239.113 207.044 239.071 206.899 239.081C206.63 239.103 206.422 239.319 206.179 239.598L205.571 240.31V240.31Z" fill="#F2F2F2"/>
<path d="M206.782 263.324L206.534 263.168L206.474 262.881L206.534 263.168L206.245 263.201C206.24 263.174 206.225 263.113 206.201 263.016C206.071 262.486 205.677 260.872 205.348 258.332C205.118 256.558 204.988 254.735 204.961 252.912C204.934 251.085 205.02 249.703 205.09 248.592C205.142 247.753 205.205 246.955 205.268 246.178C205.433 244.101 205.59 242.139 205.473 239.967C205.448 239.482 205.394 238.473 204.805 237.399C204.464 236.776 203.993 236.223 203.407 235.756L203.771 235.297C204.419 235.813 204.939 236.426 205.318 237.117C205.971 238.308 206.03 239.408 206.058 239.936C206.176 242.147 206.018 244.127 205.851 246.224C205.789 246.999 205.726 247.794 205.674 248.628C205.605 249.729 205.52 251.1 205.546 252.902C205.573 254.704 205.701 256.505 205.928 258.256C206.253 260.765 206.642 262.354 206.77 262.876C206.838 263.155 206.852 263.213 206.782 263.324V263.324Z" fill="#F2F2F2"/>
<path d="M202.334 236.687C202.31 236.687 202.285 236.687 202.261 236.685C201.762 236.658 201.301 236.359 200.889 235.797C200.696 235.533 200.597 235.231 200.4 234.629C200.369 234.537 200.221 234.066 200.13 233.418C200.071 232.995 200.079 232.819 200.162 232.662C200.255 232.488 200.405 232.367 200.575 232.285C200.567 232.229 200.573 232.171 200.597 232.112C200.697 231.868 200.962 231.9 201.106 231.915C201.178 231.924 201.269 231.936 201.367 231.931C201.52 231.924 201.603 231.878 201.728 231.809C201.848 231.743 201.997 231.662 202.218 231.616C202.653 231.525 203.018 231.649 203.138 231.69C203.771 231.901 204.083 232.394 204.444 232.965C204.516 233.079 204.764 233.496 204.927 234.067C205.045 234.479 205.028 234.662 204.993 234.799C204.92 235.079 204.75 235.239 204.319 235.593C203.868 235.963 203.642 236.149 203.447 236.261C202.995 236.523 202.711 236.687 202.334 236.687V236.687Z" fill="#F2F2F2"/>
<path d="M125.988 174.211C140.056 174.211 151.461 162.786 151.461 148.694C151.461 134.601 140.056 123.177 125.988 123.177C111.92 123.177 100.516 134.601 100.516 148.694C100.516 162.786 111.92 174.211 125.988 174.211Z" fill="#FF6884"/>
<path d="M191.543 262.769C191.543 277.069 193.041 287.535 177.495 288.661C160.802 289.87 163.448 277.069 163.448 262.769C163.448 248.469 161.2 234.25 177.495 236.877C185.155 238.112 191.543 248.469 191.543 262.769Z" fill="#3F3D56"/>
<path d="M167.943 280.781C169.184 280.781 170.191 272.717 170.191 262.769C170.191 252.821 169.184 244.757 167.943 244.757C166.702 244.757 165.695 252.821 165.695 262.769C165.695 272.717 166.702 280.781 167.943 280.781Z" fill="#E6E6E6"/>
<path d="M79.0285 239.741C79.0285 252.361 80.3508 261.597 66.632 262.591C51.9006 263.657 54.2355 252.361 54.2355 239.741C54.2355 227.122 52.252 214.574 66.632 216.892C73.3914 217.982 79.0285 227.122 79.0285 239.741Z" fill="#3F3D56"/>
<path d="M58.2023 255.636C59.2977 255.636 60.1857 248.52 60.1857 239.741C60.1857 230.963 59.2977 223.846 58.2023 223.846C57.1069 223.846 56.2189 230.963 56.2189 239.741C56.2189 248.52 57.1069 255.636 58.2023 255.636Z" fill="#E6E6E6"/>
<path d="M100.329 262.581C100.329 276.881 101.827 287.347 86.2814 288.473C69.5883 289.682 72.2341 276.881 72.2341 262.581C72.2341 248.281 69.9865 234.062 86.2814 236.689C93.941 237.924 100.329 248.281 100.329 262.581Z" fill="#3F3D56"/>
<path d="M76.7291 280.593C77.9704 280.593 78.9767 272.529 78.9767 262.581C78.9767 252.634 77.9704 244.569 76.7291 244.569C75.4878 244.569 74.4816 252.634 74.4816 262.581C74.4816 272.529 75.4878 280.593 76.7291 280.593Z" fill="#E6E6E6"/>
<path d="M55.9393 209.484V218.36L53.5044 222.43L54.2536 236.689L54.8597 237.064L54.4409 222.617C58.7087 221.026 60.1043 223.958 59.6852 229.747L58.936 239.504L70.9231 247.008L72.4214 231.623L78.0404 228.997L84.2212 255.076H187.777C192.046 255.076 195.457 251.518 195.284 247.245L193.977 214.925L190.451 211.393L187.185 173.544C186.37 164.105 178.381 156.921 168.925 157.125L104.145 158.523C100.631 158.599 97.1585 159.308 93.8947 160.616L78.2276 166.893L68.1151 177.024L66.6152 201.416L62.7915 201.083C60.041 200.843 57.5325 202.664 56.9034 205.357L55.9393 209.484H55.9393Z" fill="#E6E6E6"/>
<path d="M89.4654 244.569C91.5343 244.569 93.2114 242.889 93.2114 240.817C93.2114 238.745 91.5343 237.065 89.4654 237.065C87.3966 237.065 85.7195 238.745 85.7195 240.817C85.7195 242.889 87.3966 244.569 89.4654 244.569Z" fill="#3F3D56"/>
<path d="M98.0812 244.569C100.15 244.569 101.827 242.889 101.827 240.817C101.827 238.745 100.15 237.065 98.0812 237.065C96.0123 237.065 94.3352 238.745 94.3352 240.817C94.3352 242.889 96.0123 244.569 98.0812 244.569Z" fill="#3F3D56"/>
<path d="M181.99 244.569C184.059 244.569 185.736 242.889 185.736 240.817C185.736 238.745 184.059 237.065 181.99 237.065C179.922 237.065 178.244 238.745 178.244 240.817C178.244 242.889 179.922 244.569 181.99 244.569Z" fill="#3F3D56"/>
<path d="M190.606 244.569C192.675 244.569 194.352 242.889 194.352 240.817C194.352 238.745 192.675 237.065 190.606 237.065C188.537 237.065 186.86 238.745 186.86 240.817C186.86 242.889 188.537 244.569 190.606 244.569Z" fill="#3F3D56"/>
<path d="M184.761 205.571H96.6954C96.0221 205.571 95.3955 205.302 94.9309 204.814C94.4663 204.326 94.2278 203.686 94.2597 203.012L95.5462 175.76C95.6071 174.472 96.6634 173.449 97.9507 173.433L181.105 172.361C182.333 172.349 183.397 173.261 183.555 174.493L187.179 202.817C187.268 203.513 187.054 204.214 186.591 204.741C186.128 205.268 185.461 205.571 184.761 205.571H184.761Z" fill="white"/>
<path d="M84.3997 204.23H78.6857C78.0078 204.23 77.355 203.945 76.895 203.446C76.4348 202.947 76.2014 202.273 76.2547 201.596L77.8994 180.687C77.9895 179.539 78.8474 178.623 79.9854 178.46L85.8901 177.615C86.6294 177.51 87.3656 177.743 87.9088 178.257C88.4522 178.771 88.7277 179.493 88.6648 180.239L86.8296 201.993C86.7221 203.268 85.6773 204.23 84.3997 204.23V204.23Z" fill="white"/>
<path d="M71.2592 203.699C71.2002 203.699 71.1407 203.697 71.0813 203.693L70.4104 203.645C69.7477 203.597 69.1468 203.291 68.7188 202.782C68.2908 202.273 68.0916 201.628 68.1577 200.965L70.0034 182.475C70.1128 181.381 70.9455 180.49 72.0291 180.309C72.7675 180.185 73.5094 180.403 74.0645 180.906C74.6198 181.408 74.911 182.125 74.8636 182.873L73.6886 201.411C73.6471 202.066 73.3526 202.664 72.8591 203.096C72.4108 203.488 71.8484 203.699 71.2592 203.699L71.2592 203.699Z" fill="white"/>
<path d="M61.968 241.423L60.9963 220.178C60.9963 220.178 58.7487 217.176 57.2503 217.927C55.7519 218.677 53.5265 222.851 53.5265 222.851C53.5265 222.851 57.8696 222.566 57.7472 227.188C57.6249 231.811 58.4913 239.289 58.4913 239.289L61.968 241.423V241.423Z" fill="#CCCCCC"/>
<path d="M71.0143 246.973L71.4849 231.124L76.2499 225.487C76.2499 225.487 82.618 224.108 82.4831 231.337C82.3481 238.565 84.4084 255.264 84.4084 255.264L79.7518 252.334C79.7518 252.334 78.6022 234.438 75.2308 232.562C71.8595 230.685 72.9833 232.186 72.9833 232.186L71.0143 246.973H71.0143Z" fill="#CCCCCC"/>
<path d="M66.0518 206.344L62.3599 204.231H62.763C63.3388 204.231 63.8057 203.763 63.8057 203.186V194.018C63.8057 193.441 63.3388 192.973 62.763 192.973H58.8548C58.279 192.973 57.8121 193.441 57.8121 194.018V203.186C57.8121 203.763 58.279 204.231 58.8548 204.231H60.85L65.6801 206.995L66.0518 206.344V206.344Z" fill="#3F3D56"/>
<path d="M71.0397 220.082L68.1597 219.252C67.4638 219.051 66.7374 219.454 66.5373 220.151C66.3372 220.848 66.7391 221.576 67.435 221.776L70.3151 222.606C71.0109 222.806 71.7373 222.404 71.9374 221.707C72.1375 221.01 71.7356 220.282 71.0397 220.082Z" fill="#3F3D56"/>
<path d="M188.369 193.442L176.055 192.91C175.331 192.878 174.72 193.44 174.688 194.165C174.657 194.89 175.218 195.503 175.942 195.534L188.256 196.066C188.98 196.098 189.591 195.536 189.623 194.811C189.654 194.086 189.093 193.473 188.369 193.442Z" fill="#3F3D56"/>
<path d="M199.982 218.208L187.667 217.676C186.944 217.644 186.332 218.207 186.301 218.931C186.27 219.656 186.831 220.269 187.554 220.3L199.869 220.833C200.592 220.864 201.204 220.302 201.235 219.577C201.266 218.852 200.705 218.24 199.982 218.208Z" fill="#3F3D56"/>
<path d="M149.775 246.821C165.498 246.821 178.244 234.053 178.244 218.302C178.244 202.552 165.498 189.783 149.775 189.783C134.052 189.783 121.306 202.552 121.306 218.302C121.306 234.053 134.052 246.821 149.775 246.821Z" fill="#3F3D56"/>
<path d="M149.775 235.188C159.085 235.188 166.632 227.628 166.632 218.302C166.632 208.976 159.085 201.416 149.775 201.416C140.465 201.416 132.918 208.976 132.918 218.302C132.918 227.628 140.465 235.188 149.775 235.188Z" fill="#E6E6E6"/>
<path d="M187.494 161.665C187.637 163.33 188.611 164.605 189.668 164.514C190.726 164.422 191.467 162.999 191.323 161.333C191.275 160.667 191.068 160.022 190.72 159.453L190.024 152.407L186.73 152.805L187.766 159.708C187.521 160.329 187.427 161 187.494 161.665L187.494 161.665Z" fill="#FFB6B6"/>
<path d="M177.961 120.879C177.961 120.879 181.595 119.853 182.992 121.589C184.389 123.326 189.6 140.376 189.6 140.376L191.218 158.726L186.059 157.162L184.051 142.69L180.679 135.185L177.961 120.879V120.879Z" fill="#6C63FF"/>
<path d="M176.775 109.84H165.699V120.361H176.775V109.84Z" fill="#2F2E41"/>
<path d="M171.12 115.2C174.102 115.2 176.52 112.778 176.52 109.791C176.52 106.803 174.102 104.381 171.12 104.381C168.137 104.381 165.719 106.803 165.719 109.791C165.719 112.778 168.137 115.2 171.12 115.2Z" fill="#FFB6B6"/>
<path d="M168.563 101.04C165.112 101.576 165.276 102.86 164.171 103.527C162.224 104.702 161.456 108.095 162.484 110.334C162.759 110.933 163.338 111.749 163.057 112.63C162.841 113.307 162.219 113.706 162.102 113.778C161.146 114.369 161.77 113.666 161.338 114.16C160.861 114.707 161.6 115.478 161.147 116.456C160.746 117.323 159.918 117.25 159.81 117.795C159.625 118.734 161.75 120.622 164.012 120.473C166.025 120.341 167.521 118.636 168.022 117.03C168.357 115.954 168.502 114.104 167.64 113.204C167.519 113.078 167.188 112.772 166.876 112.247C166.629 111.832 166.303 111.286 166.494 110.908C166.697 110.506 167.273 110.718 167.64 110.334C168.137 109.814 167.546 108.936 167.64 108.039C167.798 106.52 169.946 104.694 172.223 104.978C174.806 105.3 175.753 108.114 175.851 108.421C176.055 109.059 176.051 109.675 176.042 110.908C176.031 112.678 176.023 113.787 175.47 114.926C174.673 116.563 173.658 116.386 173.369 117.604C172.919 119.502 175.036 121.408 175.279 121.621C177.074 123.198 179.786 123.672 180.244 122.96C180.656 122.319 178.847 121.321 178.907 119.325C178.959 117.597 180.356 117.069 180.053 115.882C179.719 114.575 177.94 114.873 177.188 113.395C176.487 112.016 177.78 111.25 177.57 108.421C177.526 107.823 177.338 106.106 176.233 104.404C175.747 103.655 175.252 102.892 174.324 102.491C173.285 102.042 170.389 100.757 168.563 101.04V101.04Z" fill="#2F2E41"/>
<path d="M166.272 105.823C166.412 107.007 168.187 107.588 168.945 107.736C169.266 107.798 170.35 108.01 171.428 107.545C171.826 107.372 171.971 107.217 172.382 107.162C172.94 107.088 173.22 107.3 174.101 107.545C175.08 107.816 175.57 107.952 175.82 107.736C176.228 107.382 175.914 106.223 175.438 105.44C174.557 103.993 172.944 103.545 172.191 103.336C171.332 103.097 169.588 102.613 167.99 103.527C167.777 103.65 166.129 104.619 166.272 105.823V105.823Z" fill="#2F2E41"/>
<path d="M192.559 212.26L195.315 212.325L196.852 199.92L192.784 199.824L192.559 212.26Z" fill="#FFB6B6"/>
<path d="M202.015 218.02C202.015 218.487 201.685 218.865 201.277 218.865H195.806C195.806 218.865 195.268 216.697 193.073 215.764L192.921 218.865H190.099L190.441 213.879C190.441 213.879 189.686 211.211 191.254 209.847C192.822 208.484 191.552 208.674 191.552 208.674L192.169 205.588L196.433 206.09L196.465 210.934L198.535 215.743L201.57 217.245C201.84 217.379 202.015 217.684 202.015 218.02L202.015 218.02H202.015Z" fill="#2F2E41"/>
<path d="M180.027 187.964L182.722 187.383L181.326 174.961L177.348 175.819L180.027 187.964Z" fill="#FFB6B6"/>
<path d="M190.565 191.354C190.673 191.807 190.44 192.252 190.044 192.348L184.724 193.627C184.724 193.627 183.695 191.645 181.343 191.251L181.919 194.302L179.174 194.962L178.345 190.033C178.345 190.033 176.989 187.616 178.196 185.923C179.403 184.231 178.212 184.712 178.212 184.712L178.093 181.567L182.357 181.058L183.516 185.762L186.649 189.953L189.951 190.704C190.245 190.771 190.486 191.026 190.565 191.354H190.565V191.354Z" fill="#2F2E41"/>
<path d="M174.873 115.86L168.13 116.235L166.257 119.988L159.14 123.74L160.264 142.244L157.696 151.551L158.016 154.135L183.114 153.385L181.616 125.616L181.99 121.113L177.121 119.612L174.873 115.86Z" fill="#6C63FF"/>
<path d="M158.204 150.57C158.204 150.57 152.585 160.516 158.204 161.922C160.703 162.548 163.351 162.969 165.521 163.245C168.118 163.574 170.509 161.788 170.94 159.201L176.933 179.839L182.927 178.338L184.051 167.595L191.333 174.89L190.419 204.23L197.161 203.855L204.279 171.959C204.279 171.959 204.653 169.708 199.034 166.706C193.416 163.704 183.301 153.947 183.301 153.947L166.07 148.694L158.204 150.57V150.57Z" fill="#2F2E41"/>
<path d="M170.003 157.137L160.264 150.758L172.251 138C172.251 138 178.994 135.373 180.867 145.504C182.74 155.636 183.863 164.642 183.863 164.642L170.003 157.137Z" fill="#2F2E41"/>
<path d="M149.908 138.093L150.335 135.185C150.646 133.066 149.243 131.217 147.34 130.762V129.556C147.34 128.52 146.502 127.68 145.467 127.68C144.433 127.68 143.594 128.52 143.594 129.556V131.164L136.477 132.677V130.682C136.477 129.646 135.638 128.806 134.604 128.806C133.57 128.806 132.731 129.646 132.731 130.682V132.578L132.023 132.393C129.91 131.841 128.241 134.269 129.555 136.016C129.572 136.039 129.59 136.061 129.607 136.084C131.362 138.344 131.863 140.352 131.863 140.352L130.61 147.131L132.037 161.224C132.221 163.041 133.782 164.402 135.603 164.334L149.46 163.82C151.28 163.752 152.737 162.282 152.787 160.459C152.963 153.963 152.984 139.826 149.908 138.093V138.093Z" fill="#3F3D56"/>
<path d="M137.502 162.445C137.307 162.445 137.143 162.294 137.128 162.097L136.377 152.055C136.361 151.848 136.516 151.668 136.722 151.653C136.927 151.636 137.108 151.792 137.124 151.999L137.875 162.041C137.891 162.248 137.736 162.428 137.53 162.443C137.52 162.444 137.511 162.445 137.502 162.445V162.445Z" fill="#FFB6B6"/>
<path d="M131.862 140.727C131.68 140.727 131.52 140.593 131.492 140.407C131.462 140.202 131.604 140.011 131.809 139.981L149.912 137.323C150.117 137.293 150.307 137.435 150.337 137.64C150.367 137.845 150.226 138.036 150.021 138.066L131.917 140.723C131.899 140.726 131.88 140.727 131.862 140.727V140.727Z" fill="#FFB6B6"/>
<path d="M25.5152 249.454C25.389 249.24 24.843 249.469 24.7426 249.275C24.6426 249.082 25.1499 248.789 25.4397 248.118C25.4919 247.997 25.8213 247.234 25.5775 246.999C25.1153 246.553 23.0005 248.393 22.2603 247.791C22.0979 247.659 21.9844 247.395 21.4929 246.967C21.2973 246.796 21.179 246.719 21.0646 246.748C20.9022 246.789 20.8893 247.006 20.7152 247.434C20.4541 248.076 20.2996 248.038 20.1474 248.55C20.0345 248.93 20.0603 249.151 19.9274 249.194C19.7393 249.255 19.5662 248.852 19.3278 248.888C19.0846 248.925 18.9375 249.394 18.8911 249.746C18.8039 250.406 19.0458 250.841 19.1798 251.299C19.3255 251.796 19.412 252.553 19.0755 253.624L15.7455 263.023C16.4807 261.094 18.6093 255.807 19.5038 253.843C19.762 253.276 20.0471 252.7 20.6325 252.473C21.1962 252.255 21.9702 252.385 22.957 252.147C23.0723 252.119 23.3921 252.038 23.4324 251.849C23.4657 251.693 23.2775 251.607 23.3064 251.461C23.3452 251.265 23.7152 251.263 24.1698 251.037C24.4903 250.877 24.69 250.688 24.8618 250.525C24.9135 250.476 25.6832 249.737 25.5152 249.454H25.5152Z" fill="#F2F2F2"/>
<path d="M12.4138 254.401C12.2729 254.402 12.2272 254.736 12.1034 254.73C11.9801 254.723 11.9826 254.389 11.7375 254.053C11.6933 253.992 11.4147 253.61 11.2291 253.662C10.8772 253.761 11.1687 255.332 10.6601 255.522C10.5485 255.564 10.3865 255.543 10.0347 255.661C9.89478 255.708 9.82296 255.744 9.80396 255.809C9.77701 255.9 9.87997 255.97 10.0395 256.179C10.2787 256.492 10.2151 256.557 10.4222 256.78C10.5759 256.945 10.6916 256.996 10.6744 257.074C10.65 257.184 10.4024 257.153 10.3513 257.28C10.2992 257.41 10.4868 257.618 10.6457 257.742C10.9438 257.976 11.2269 257.982 11.4899 258.049C11.7757 258.12 12.1713 258.296 12.599 258.771L16.2432 263.12C15.5104 262.202 13.5342 259.63 12.8298 258.623C12.6264 258.333 12.4268 258.027 12.4845 257.673C12.54 257.333 12.8273 256.99 12.9953 256.436C13.015 256.372 13.0673 256.191 12.9866 256.117C12.9199 256.055 12.823 256.123 12.7598 256.066C12.6751 255.991 12.7807 255.808 12.8012 255.52C12.8157 255.316 12.7805 255.163 12.7503 255.032C12.7412 254.992 12.6013 254.401 12.4138 254.401V254.401Z" fill="#F2F2F2"/>
<path d="M15.224 255.033L15.1392 254.275L15.1779 254.217C15.3574 253.951 15.4488 253.691 15.4499 253.445C15.4501 253.405 15.4483 253.366 15.4464 253.326C15.4391 253.168 15.43 252.971 15.5324 252.742C15.5898 252.614 15.7512 252.318 15.9937 252.354C16.059 252.363 16.1084 252.394 16.1459 252.429L16.1631 252.402C16.2386 252.286 16.2984 252.237 16.356 252.189C16.4003 252.152 16.446 252.115 16.5177 252.025C16.5492 251.986 16.5737 251.952 16.5944 251.923C16.6571 251.835 16.7391 251.731 16.8836 251.732C17.0379 251.74 17.1188 251.868 17.1724 251.952C17.268 252.103 17.3114 252.212 17.3401 252.284C17.3505 252.311 17.3624 252.34 17.3684 252.35C17.4182 252.423 17.8226 252.354 17.975 252.329C18.3172 252.272 18.6133 252.223 18.7353 252.439C18.8227 252.594 18.7578 252.798 18.5365 253.063C18.4675 253.145 18.3942 253.208 18.3291 253.257C18.383 253.29 18.4313 253.339 18.4509 253.417C18.497 253.601 18.3391 253.785 17.9819 253.965C17.8932 254.01 17.7738 254.07 17.6064 254.099C17.5276 254.113 17.4566 254.116 17.3959 254.118C17.3946 254.153 17.3864 254.191 17.365 254.231C17.3022 254.346 17.1716 254.401 16.9748 254.388C16.7583 254.376 16.5799 254.335 16.4226 254.299C16.2853 254.267 16.1669 254.24 16.074 254.247C15.9017 254.261 15.7689 254.399 15.6131 254.578L15.224 255.033L15.224 255.033Z" fill="#F2F2F2"/>
<path d="M15.6178 250.515L14.9065 250.79L14.8411 250.767C14.5387 250.66 14.2646 250.637 14.0262 250.699C13.9883 250.709 13.9509 250.72 13.9128 250.732C13.7617 250.78 13.574 250.838 13.3266 250.797C13.1885 250.774 12.8617 250.693 12.8355 250.449C12.8278 250.383 12.8443 250.327 12.8688 250.282L12.8382 250.272C12.7076 250.229 12.6446 250.183 12.584 250.139C12.5374 250.106 12.4894 250.071 12.3848 250.024C12.339 250.004 12.2995 249.989 12.2663 249.976C12.1658 249.937 12.0442 249.885 12.0093 249.744C11.9773 249.593 12.0802 249.482 12.1484 249.408C12.2699 249.277 12.364 249.208 12.4264 249.162C12.4493 249.145 12.4749 249.126 12.4822 249.118C12.5404 249.051 12.3716 248.676 12.3089 248.535C12.1669 248.218 12.044 247.944 12.2219 247.771C12.349 247.647 12.5629 247.658 12.8749 247.805C12.972 247.851 13.0511 247.906 13.1151 247.957C13.1325 247.896 13.168 247.837 13.2381 247.798C13.404 247.707 13.622 247.813 13.8868 248.113C13.9528 248.188 14.0411 248.288 14.1115 248.443C14.1446 248.516 14.1658 248.584 14.183 248.643C14.2173 248.635 14.2561 248.633 14.2994 248.644C14.4268 248.675 14.513 248.788 14.5502 248.982C14.5942 249.195 14.5994 249.378 14.6043 249.54C14.6087 249.681 14.6129 249.802 14.6425 249.891C14.6996 250.054 14.8667 250.148 15.0792 250.253L15.6178 250.515H15.6178Z" fill="#F2F2F2"/>
<path d="M15.224 248.279L15.1392 247.52L15.1779 247.462C15.3574 247.196 15.4488 246.937 15.4499 246.69C15.4501 246.651 15.4483 246.612 15.4464 246.572C15.4391 246.413 15.43 246.217 15.5324 245.987C15.5898 245.859 15.7512 245.563 15.9937 245.6C16.059 245.609 16.1084 245.639 16.1459 245.674L16.1631 245.647C16.2386 245.532 16.2984 245.482 16.356 245.435C16.4003 245.398 16.446 245.36 16.5177 245.271C16.5492 245.232 16.5737 245.197 16.5944 245.168C16.6571 245.081 16.7391 244.976 16.8836 244.978C17.0379 244.985 17.1188 245.113 17.1724 245.198C17.268 245.349 17.3114 245.458 17.3401 245.53C17.3505 245.556 17.3624 245.586 17.3684 245.595C17.4182 245.668 17.8226 245.6 17.975 245.575C18.3172 245.518 18.6133 245.468 18.7353 245.684C18.8227 245.839 18.7578 246.044 18.5365 246.309C18.4675 246.391 18.3942 246.454 18.3291 246.503C18.383 246.535 18.4313 246.584 18.4509 246.662C18.497 246.846 18.3391 247.03 17.9819 247.211C17.8932 247.256 17.7738 247.316 17.6064 247.345C17.5276 247.358 17.4566 247.362 17.3959 247.364C17.3946 247.399 17.3864 247.437 17.365 247.476C17.3022 247.591 17.1716 247.646 16.9748 247.633C16.7583 247.622 16.5799 247.58 16.4226 247.544C16.2853 247.513 16.1669 247.486 16.074 247.492C15.9017 247.506 15.7689 247.644 15.6131 247.823L15.224 248.279L15.224 248.279Z" fill="#F2F2F2"/>
<path d="M15.9991 263.01L15.8404 262.911L15.802 262.727L15.8404 262.911L15.6553 262.932C15.6523 262.915 15.6423 262.875 15.6271 262.813C15.5442 262.474 15.2916 261.441 15.0809 259.815C14.9339 258.68 14.8506 257.512 14.8335 256.345C14.8163 255.176 14.8715 254.291 14.9158 253.58C14.9492 253.044 14.9898 252.533 15.0297 252.035C15.1358 250.706 15.2359 249.45 15.1614 248.059C15.1449 247.749 15.1104 247.103 14.7336 246.416C14.515 246.017 14.2139 245.663 13.8386 245.364L14.072 245.07C14.4863 245.4 14.8194 245.793 15.0621 246.235C15.4799 246.997 15.5175 247.701 15.5356 248.04C15.6114 249.455 15.5102 250.722 15.403 252.065C15.3635 252.561 15.3229 253.069 15.2896 253.603C15.2457 254.308 15.191 255.185 15.2081 256.339C15.2249 257.493 15.3072 258.646 15.4522 259.766C15.6604 261.372 15.9093 262.39 15.9911 262.724C16.0346 262.902 16.0438 262.94 15.9991 263.01H15.9991Z" fill="#F2F2F2"/>
<path d="M13.1517 245.96C13.1363 245.96 13.1207 245.96 13.105 245.959C12.786 245.941 12.4906 245.75 12.2269 245.39C12.1032 245.221 12.04 245.028 11.9137 244.643C11.8942 244.583 11.7991 244.282 11.7413 243.868C11.7034 243.597 11.7082 243.484 11.7617 243.384C11.8212 243.272 11.9174 243.194 12.0257 243.142C12.0209 243.106 12.0248 243.069 12.0403 243.031C12.1041 242.875 12.2739 242.895 12.3657 242.905C12.4122 242.911 12.4701 242.919 12.5327 242.916C12.6311 242.911 12.684 242.882 12.7641 242.838C12.8407 242.795 12.936 242.743 13.0774 242.714C13.3562 242.656 13.5897 242.735 13.6667 242.761C14.0719 242.896 14.2716 243.212 14.5028 243.577C14.5489 243.65 14.7071 243.917 14.8115 244.283C14.8869 244.547 14.8763 244.664 14.8536 244.751C14.8075 244.93 14.6987 245.033 14.4223 245.259C14.1337 245.497 13.9888 245.615 13.8644 245.687C13.5749 245.855 13.3931 245.96 13.1517 245.96L13.1517 245.96Z" fill="#F2F2F2"/>
<path d="M234.993 206.703L235.165 193.293L230.026 191.878L230.182 206.705L229 217.661L229.03 217.673C228.535 218.172 228.133 218.969 227.961 219.911C227.649 221.629 228.222 223.173 229.24 223.359C230.259 223.545 231.338 222.302 231.651 220.583C231.779 219.878 231.756 219.204 231.616 218.639L231.662 218.656L234.993 206.703V206.703Z" fill="#A0616A"/>
<path d="M225.648 175.182C225.648 175.182 227.98 173.396 229.626 176.007C231.272 178.618 235.798 191.809 235.798 191.809C235.798 191.809 237.107 197.855 236.796 198.748C236.484 199.641 236.073 207.502 236.073 207.502L229.641 206.334L229.797 198.748L223.668 188.949L225.648 175.182V175.182Z" fill="#CCCCCC"/>
<path d="M182.575 170.312L191.588 180.228L196.307 177.749L186.089 167.021L179.486 158.206L179.456 158.219C179.478 157.515 179.228 156.658 178.712 155.853C177.768 154.383 176.298 153.646 175.427 154.207C174.556 154.768 174.614 156.414 175.557 157.884C175.944 158.487 176.421 158.964 176.908 159.281L176.862 159.3L182.575 170.312H182.575Z" fill="#A0616A"/>
<path d="M211.4 186.953C211.4 186.953 210.913 189.854 207.931 189.072C204.949 188.289 192.652 181.746 192.652 181.746C192.652 181.746 187.575 178.224 187.194 177.358C186.813 176.492 181.756 170.467 181.756 170.467L187.252 166.922L192.308 172.571L203.464 175.541L211.4 186.954V186.953Z" fill="#CCCCCC"/>
<path d="M213.108 167.602C217.061 167.602 220.265 164.392 220.265 160.432C220.265 156.472 217.061 153.262 213.108 153.262C209.155 153.262 205.95 156.472 205.95 160.432C205.95 164.392 209.155 167.602 213.108 167.602Z" fill="#A0616A"/>
<path d="M225.664 286.04L221.222 286.039L219.108 268.875L225.665 268.875L225.664 286.04Z" fill="#A0616A"/>
<path d="M210.444 285.939C210.306 286.172 210.233 286.925 210.233 287.196C210.233 288.031 210.908 288.707 211.74 288.707H225.498C226.066 288.707 226.526 288.246 226.526 287.676V287.103C226.526 287.103 227.207 285.378 225.806 283.253C225.806 283.253 224.064 284.917 221.462 282.31L220.695 280.918L215.14 284.987L212.061 285.367C211.388 285.45 210.791 285.354 210.444 285.939H210.444V285.939Z" fill="#2F2E41"/>
<path d="M212.928 286.04L208.485 286.039L206.372 268.875L212.929 268.875L212.928 286.04Z" fill="#A0616A"/>
<path d="M197.708 285.939C197.569 286.172 197.496 286.925 197.496 287.196C197.496 288.031 198.171 288.707 199.004 288.707H212.762C213.33 288.707 213.79 288.246 213.79 287.676V287.103C213.79 287.103 214.471 285.378 213.07 283.253C213.07 283.253 211.328 284.917 208.726 282.31L207.959 280.918L202.404 284.987L199.325 285.367C198.651 285.45 198.054 285.354 197.708 285.939H197.708V285.939Z" fill="#2F2E41"/>
<path d="M228.815 211.548L199.971 213.049L206.339 278.342L212.707 277.966L214.955 238.566L215.891 224.494L219.711 276.886L226.192 276.841L228.815 211.548Z" fill="#2F2E41"/>
<path d="M220.27 169.52L209.346 169.145L202.031 176.431V200.301L199.175 215.3C199.175 215.3 218.386 213.424 222.153 217.177C225.92 220.929 232.701 218.302 232.701 218.302L229.311 198.457L227.804 175.524L220.27 169.52Z" fill="#CCCCCC"/>
<path d="M216.259 167.456L210.17 166.015L209.23 162.317C209.23 162.317 209.207 160.574 208.386 160.38C207.564 160.185 206.115 158.973 206.115 158.973L207.519 156.699C207.519 156.699 204.136 156.332 205.151 155.704C206.167 155.075 206.314 155.358 206.458 153.841C206.756 150.7 216.348 151.159 217.094 152.882C217.094 152.882 218.326 153.173 218.953 154.191C219.581 155.208 219.895 155.717 220.305 155.814C220.716 155.911 220.933 156.832 220.933 156.832C220.933 156.832 222.382 158.044 221.874 158.358C221.366 158.672 220.978 160.318 220.978 160.318C220.978 160.318 222.33 161.942 219.306 165.571L217.694 168.167L216.259 167.456V167.456Z" fill="#2F2E41"/>
<path d="M224.078 178.001L224.505 175.094C224.816 172.975 223.413 171.126 221.51 170.671V169.465C221.51 168.429 220.671 167.589 219.637 167.589C218.603 167.589 217.764 168.429 217.764 169.465V171.073L210.647 172.585V170.591C210.647 169.555 209.808 168.715 208.774 168.715C207.739 168.715 206.901 169.555 206.901 170.591V172.487L206.193 172.302C204.08 171.749 202.411 174.178 203.725 175.925C203.742 175.948 203.759 175.97 203.777 175.993C205.531 178.252 206.033 180.261 206.033 180.261L204.78 187.04L206.207 201.133C206.391 202.949 207.951 204.311 209.773 204.243L223.63 203.729C225.45 203.661 226.907 202.191 226.957 200.368C227.133 193.872 227.153 179.734 224.078 178.001V178.001Z" fill="#3F3D56"/>
<path d="M211.671 202.353C211.477 202.353 211.313 202.203 211.298 202.006L210.546 191.964C210.531 191.757 210.686 191.577 210.892 191.561C211.096 191.545 211.278 191.701 211.293 191.907L212.045 201.95C212.061 202.157 211.906 202.337 211.7 202.352C211.69 202.353 211.681 202.353 211.671 202.353V202.353Z" fill="#FFB6B6"/>
<path d="M206.032 180.636C205.849 180.636 205.689 180.502 205.662 180.315C205.632 180.11 205.774 179.92 205.978 179.89L224.082 177.232C224.287 177.202 224.477 177.344 224.507 177.549C224.537 177.754 224.395 177.944 224.191 177.974L206.087 180.632C206.068 180.635 206.05 180.636 206.032 180.636V180.636Z" fill="#FFB6B6"/>
<path d="M206.858 202.954L199.784 185.843L201.657 186.594L209.191 201.754L206.858 202.954Z" fill="#3F3D56"/>
<path d="M173.697 154.912C174.912 156.057 176.486 156.357 177.213 155.582C177.941 154.808 177.545 153.252 176.33 152.107C175.85 151.643 175.267 151.3 174.629 151.108L169.42 146.322L167.23 148.819L172.598 153.272C172.828 153.898 173.205 154.461 173.697 154.912V154.912Z" fill="#FFB6B6"/>
<path d="M169.239 130.116C169.239 130.116 162.889 122.191 160.451 122.802C157.454 123.552 158.204 126.554 155.104 134.583C154.327 136.594 153.512 138.543 155.079 140.021L159.399 144.096L168.608 151.875L172.312 147.99L164.952 138.482L169.24 130.116L169.239 130.116Z" fill="#6C63FF"/>
</svg>
