<svg width="180" height="31" viewBox="0 0 180 31" fill="none" xmlns="http://www.w3.org/2000/svg">
<path d="M18.2812 25.4492V30.0195H3.96484L8.96094 21.4062L18.2812 25.4492ZM5.85938 1.58203V30.0195H0V1.58203H5.85938Z" fill="#44FFBB"/>
<path d="M20.3906 19.668V19.2578C20.3906 17.7083 20.612 16.2826 21.0547 14.9805C21.4974 13.6654 22.1419 12.526 22.9883 11.5625C23.8346 10.599 24.8763 9.85026 26.1133 9.31641C27.3503 8.76953 28.7695 8.49609 30.3711 8.49609C31.9727 8.49609 33.3984 8.76953 34.6484 9.31641C35.8984 9.85026 36.9466 10.599 37.793 11.5625C38.6523 12.526 39.3034 13.6654 39.7461 14.9805C40.1888 16.2826 40.4102 17.7083 40.4102 19.2578V19.668C40.4102 21.2044 40.1888 22.6302 39.7461 23.9453C39.3034 25.2474 38.6523 26.3867 37.793 27.3633C36.9466 28.3268 35.9049 29.0755 34.668 29.6094C33.431 30.1432 32.0117 30.4102 30.4102 30.4102C28.8086 30.4102 27.3828 30.1432 26.1328 29.6094C24.8958 29.0755 23.8477 28.3268 22.9883 27.3633C22.1419 26.3867 21.4974 25.2474 21.0547 23.9453C20.612 22.6302 20.3906 21.2044 20.3906 19.668ZM26.0156 19.2578V19.668C26.0156 20.5534 26.0938 21.3802 26.25 22.1484C26.4062 22.9167 26.6536 23.5938 26.9922 24.1797C27.3438 24.7526 27.7995 25.2018 28.3594 25.5273C28.9193 25.8529 29.6029 26.0156 30.4102 26.0156C31.1914 26.0156 31.862 25.8529 32.4219 25.5273C32.9818 25.2018 33.431 24.7526 33.7695 24.1797C34.1081 23.5938 34.3555 22.9167 34.5117 22.1484C34.681 21.3802 34.7656 20.5534 34.7656 19.668V19.2578C34.7656 18.3984 34.681 17.5911 34.5117 16.8359C34.3555 16.0677 34.1016 15.3906 33.75 14.8047C33.4115 14.2057 32.9622 13.737 32.4023 13.3984C31.8424 13.0599 31.1654 12.8906 30.3711 12.8906C29.5768 12.8906 28.8997 13.0599 28.3398 13.3984C27.793 13.737 27.3438 14.2057 26.9922 14.8047C26.6536 15.3906 26.4062 16.0677 26.25 16.8359C26.0938 17.5911 26.0156 18.3984 26.0156 19.2578Z" fill="#44FFBB"/>
<path d="M42.9688 19.668V19.2578C42.9688 17.7083 43.1901 16.2826 43.6328 14.9805C44.0755 13.6654 44.7201 12.526 45.5664 11.5625C46.4128 10.599 47.4544 9.85026 48.6914 9.31641C49.9284 8.76953 51.3477 12.8906 52.9492 12.8906C54.5508 12.8906 55.9766 8.76953 57.2266 9.31641C58.4766 9.85026 59.5247 10.599 60.3711 11.5625C61.2305 12.526 61.8815 13.6654 62.3242 14.9805C62.7669 16.2826 62.9883 17.7083 62.9883 19.2578V19.668C62.9883 21.2044 62.7669 22.6302 62.3242 23.9453C61.8815 25.2474 61.2305 26.3867 60.3711 27.3633C59.5247 28.3268 58.4831 29.0755 57.2461 29.6094C56.0091 30.1432 54.5898 30.4102 52.9883 30.4102C51.3867 30.4102 49.9609 30.1432 48.7109 29.6094C47.474 29.0755 46.4258 28.3268 45.5664 27.3633C44.7201 26.3867 44.0755 25.2474 43.6328 23.9453C43.1901 22.6302 42.9688 21.2044 42.9688 19.668ZM48.5938 19.2578V19.668C48.5938 20.5534 48.6719 21.3802 48.8281 22.1484C48.9844 22.9167 49.2318 23.5938 49.5703 24.1797C49.9219 24.7526 50.3776 25.2018 50.9375 25.5273C51.4974 25.8529 52.181 26.0156 52.9883 26.0156C53.7695 26.0156 54.4401 25.8529 55 25.5273C55.5599 25.2018 56.0091 24.7526 56.3477 24.1797C56.6862 23.5938 56.9336 22.9167 57.0898 22.1484C57.2591 21.3802 57.3438 20.5534 57.3438 19.668V19.2578C57.3438 18.3984 57.2591 17.5911 57.0898 16.8359C56.9336 16.0677 56.6797 15.3906 56.3281 14.8047C55.9896 14.2057 55.5404 13.737 54.9805 13.3984C54.4206 13.0599 53.7435 12.8906 52.9492 12.8906C52.1549 12.8906 51.4779 13.0599 50.918 13.3984C50.3711 13.737 49.9219 14.2057 49.5703 14.8047C49.2318 15.3906 48.9844 16.0677 48.8281 16.8359C48.6719 17.5911 48.5938 18.3984 48.5938 19.2578Z" fill="#44FFBB"/>
<path d="M72.0703 0V30.0195H66.4453V0H72.0703ZM85.3906 8.88672L76.2109 19.3555L71.2891 24.3359L69.2383 20.2734L73.1445 15.3125L78.6328 8.88672H85.3906ZM79.5508 30.0195L73.3008 20.2539L77.1875 16.8555L86.0352 30.0195H79.5508Z" fill="#44FFBB"/>
<path d="M99.2383 24.1797C99.2383 23.776 99.1211 23.4115 98.8867 23.0859C98.6523 22.7604 98.2161 22.4609 97.5781 22.1875C96.9531 21.901 96.0482 21.6406 94.8633 21.4062C93.7956 21.1719 92.7995 20.8789 91.875 20.5273C90.9635 20.1628 90.1693 19.7266 89.4922 19.2188C88.8281 18.7109 88.3073 18.112 87.9297 17.4219C87.5521 16.7188 87.3633 15.918 87.3633 15.0195C87.3633 14.1341 87.5521 13.3008 87.9297 12.5195C88.3203 11.7383 88.8737 11.0482 89.5898 10.4492C90.319 9.83724 91.2044 9.36198 92.2461 9.02344C93.3008 8.67188 94.4857 8.49609 95.8008 8.49609C97.6367 8.49609 99.2122 8.78906 100.527 9.375C101.855 9.96094 102.871 10.7682 103.574 11.7969C104.29 12.8125 104.648 13.9714 104.648 15.2734H99.0234C99.0234 14.7266 98.9062 14.2383 98.6719 13.8086C98.4505 13.3659 98.099 13.0208 97.6172 12.7734C97.1484 12.513 96.5365 12.3828 95.7812 12.3828C95.1562 12.3828 94.6159 12.4935 94.1602 12.7148C93.7044 12.9232 93.3529 13.2096 93.1055 13.5742C92.8711 13.9258 92.7539 14.3164 92.7539 14.7461C92.7539 15.0716 92.819 15.3646 92.9492 15.625C93.0924 15.8724 93.3203 16.1003 93.6328 16.3086C93.9453 16.5169 94.349 16.7122 94.8438 16.8945C95.3516 17.0638 95.9766 17.2201 96.7188 17.3633C98.2422 17.6758 99.6029 18.0859 100.801 18.5938C101.999 19.0885 102.949 19.7656 103.652 20.625C104.355 21.4714 104.707 22.5846 104.707 23.9648C104.707 24.9023 104.499 25.7617 104.082 26.543C103.665 27.3242 103.066 28.0078 102.285 28.5938C101.504 29.1667 100.566 29.6159 99.4727 29.9414C98.3919 30.2539 97.1745 30.4102 95.8203 30.4102C93.8542 30.4102 92.1875 30.0586 90.8203 29.3555C89.4661 28.6523 88.4375 27.7604 87.7344 26.6797C87.0443 25.5859 86.6992 24.4661 86.6992 23.3203H92.0312C92.0573 24.0885 92.2526 24.707 92.6172 25.1758C92.9948 25.6445 93.4701 25.9831 94.043 26.1914C94.6289 26.3997 95.2604 26.5039 95.9375 26.5039C96.6667 26.5039 97.2721 26.4062 97.7539 26.2109C98.2357 26.0026 98.6003 25.7292 98.8477 25.3906C99.1081 25.0391 99.2383 24.6354 99.2383 24.1797Z" fill="#44FFBB"/>
<path d="M126.992 25.4492V30.0195H112.676V25.4492H126.992ZM114.57 1.58203V30.0195H108.711V1.58203H114.57Z" fill="#44FFBB"/>
<path d="M135.938 8.88672V30.0195H130.293V8.88672H135.938ZM129.941 3.37891C129.941 2.55859 130.228 1.88151 130.801 1.34766C131.374 0.813802 132.142 0.546875 133.105 0.546875C134.056 0.546875 134.818 0.813802 135.391 1.34766C135.977 1.88151 136.27 2.55859 136.27 3.37891C136.27 4.19922 135.977 4.8763 135.391 5.41016C134.818 5.94401 134.056 2.51953 133.105 2.51953C132.142 2.51953 131.374 5.94401 130.801 5.41016C130.228 4.8763 129.941 4.19922 129.941 3.37891Z" fill="#44FFBB"/>
<path d="M146.211 0V30.0195H140.586V0H146.211ZM159.531 8.88672L150.352 19.3555L145.43 24.3359L143.379 20.2734L147.285 15.3125L152.773 8.88672H159.531ZM153.691 30.0195L147.441 20.2539L151.328 16.8555L160.176 30.0195H153.691Z" fill="#44FFBB"/>
<path d="M171.289 30.4102C169.648 30.4102 168.177 30.1497 166.875 29.6289C165.573 29.0951 164.466 28.3594 163.555 27.4219C162.656 26.4844 161.966 25.3971 161.484 24.1602C161.003 22.9102 160.762 21.582 160.762 20.1758V19.3945C160.762 17.793 160.99 16.3281 161.445 15C161.901 13.6719 162.552 12.5195 163.398 11.543C164.258 10.5664 165.299 9.81771 166.523 9.29688C167.747 8.76302 169.128 8.49609 170.664 8.49609C172.161 8.49609 173.49 8.74349 174.648 9.23828C175.807 9.73307 176.777 10.4362 177.559 11.3477C178.353 12.2591 178.952 13.3529 179.355 14.6289C179.759 15.8919 179.961 17.2982 179.961 18.8477V21.1914H163.164V17.4414H174.434V17.0117C174.434 16.2305 174.29 15.5339 174.004 14.9219C173.73 14.2969 173.314 13.8021 172.754 13.4375C172.194 13.0729 171.478 12.8906 170.605 12.8906C169.863 12.8906 169.225 13.0534 168.691 13.3789C168.158 13.7044 167.721 14.1602 167.383 14.7461C167.057 15.332 166.81 16.0221 166.641 16.8164C166.484 17.5977 166.406 18.457 166.406 19.3945V20.1758C166.406 21.0221 166.523 21.8034 166.758 22.5195C167.005 23.2357 167.35 23.8542 167.793 24.375C168.249 24.8958 168.796 25.2995 169.434 25.5859C170.085 25.8724 170.82 26.0156 171.641 26.0156C172.656 26.0156 173.6 25.8203 174.473 25.4297C175.358 25.026 176.12 24.4206 176.758 23.6133L179.492 26.582C179.049 27.2201 178.444 27.832 177.676 28.418C176.921 29.0039 176.009 29.4857 174.941 29.8633C173.874 30.2279 172.656 30.4102 171.289 30.4102Z" fill="#44FFBB"/>
</svg>
