<svg width="122" height="122" viewBox="0 0 122 122" fill="none" xmlns="http://www.w3.org/2000/svg">
<path d="M18.7626 31.9843C25.8945 24.2526 36.6864 20.3333 50.8333 20.3333H55.9167V34.6633L51.8297 35.4817C44.8655 36.8745 40.0211 39.6144 37.4286 43.6353C36.0759 45.8015 35.3087 48.2817 35.2021 50.8333H50.8333C52.1815 50.8333 53.4745 51.3689 54.4278 52.3222C55.3811 53.2755 55.9167 54.5685 55.9167 55.9167V91.5C55.9167 97.1069 51.3569 101.667 45.75 101.667H15.25C13.9018 101.667 12.6089 101.131 11.6555 100.178C10.7022 99.2245 10.1667 97.9315 10.1667 96.5833V71.1667L10.1819 56.3284C10.1362 55.7642 9.17033 42.395 18.7626 31.9843ZM101.667 101.667H71.1667C69.8185 101.667 68.5255 101.131 67.5722 100.178C66.6189 99.2245 66.0833 97.9315 66.0833 96.5833V71.1667L66.0986 56.3284C66.0528 55.7642 65.087 42.395 74.6792 31.9843C81.8112 24.2526 92.6031 20.3333 106.75 20.3333H111.833V34.6633L107.746 35.4817C100.782 36.8745 95.9378 39.6144 93.3453 43.6353C91.9925 45.8015 91.2253 48.2817 91.1187 50.8333H106.75C108.098 50.8333 109.391 51.3689 110.344 52.3222C111.298 53.2755 111.833 54.5685 111.833 55.9167V91.5C111.833 97.1069 107.274 101.667 101.667 101.667Z" fill="white"/>
</svg>
