<svg width="40" height="40" viewBox="0 0 40 40" fill="none" xmlns="http://www.w3.org/2000/svg">
<path d="M5 10H8.33333H35" stroke="white" stroke-width="3.33333" stroke-linecap="round" stroke-linejoin="round"/>
<path d="M13.3335 9.99998V6.66665C13.3335 5.78259 13.6847 4.93474 14.3098 4.30962C14.9349 3.6845 15.7828 3.33331 16.6668 3.33331H23.3335C24.2176 3.33331 25.0654 3.6845 25.6905 4.30962C26.3156 4.93474 26.6668 5.78259 26.6668 6.66665V9.99998M31.6668 9.99998V33.3333C31.6668 34.2174 31.3156 35.0652 30.6905 35.6903C30.0654 36.3155 29.2176 36.6666 28.3335 36.6666H11.6668C10.7828 36.6666 9.93493 36.3155 9.30981 35.6903C8.68469 35.0652 8.3335 34.2174 8.3335 33.3333V9.99998H31.6668Z" stroke="white" stroke-width="3.33333" stroke-linecap="round" stroke-linejoin="round"/>
<path d="M16.6665 18.3333V28.3333" stroke="white" stroke-width="3.33333" stroke-linecap="round" stroke-linejoin="round"/>
<path d="M23.3335 18.3333V28.3333" stroke="white" stroke-width="3.33333" stroke-linecap="round" stroke-linejoin="round"/>
</svg>
